PathFileType	4	(X/Y/Z)	pose_F01_0-91.trc
DataRate	CameraRate	NumFrames	NumMarkers	Units	OrigDataRate	OrigDataStartFrame	OrigNumFrames
30	30	6	21	m	30	79	91
Frame#	Time	CHip			RHip			RKnee			RAnkle			RBigToe			RSmallToe			RHeel			LHip			LKnee			LAnkle			LBigToe			LSmallToe			LHeel			Neck			Nose			RShoulder			RElbow			RWrist			LShoulder			LElbow			LWrist			
		X1	Y1	Z1	X2	Y2	Z2	X3	Y3	Z3	X4	Y4	Z4	X5	Y5	Z5	X6	Y6	Z6	X7	Y7	Z7	X8	Y8	Z8	X9	Y9	Z9	X10	Y10	Z10	X11	Y11	Z11	X12	Y12	Z12	X13	Y13	Z13	X14	Y14	Z14	X15	Y15	Z15	X16	Y16	Z16	X17	Y17	Z17	X18	Y18	Z18	X19	Y19	Z19	X20	Y20	Z20	X21	Y21	Z21	
79	2.6333333333333333	-0.32119674962708294	1.8261244032872441	-0.4943174849141749	-0.3381299194775729	1.8224687716377157	-0.4313541670193349	-0.34182716567642213	1.6962275265246183	-0.4314004044441527	-0.33323589383857394	1.5565918741160027	-0.4199552567448178	-0.2933090253261959	1.5320066163600166	-0.3928131443759768	-0.3072779815345707	1.5333548162745805	-0.3768403760534797	-0.339959362759987	1.5438712417765579	-0.4319178013329538	-0.3121672114631061	1.8279889645032683	-0.5515080639335057	-0.3107793219766216	1.6970050578290894	-0.5581985001662166	-0.3414443312303327	1.5775473593293865	-0.5831729906877106	-0.45020322616867614	1.5288441512648838	-0.9856717432875501	-0.3028174340706399	1.5512598011683938	-0.5899403905133028	-0.35835001243436987	1.5690580424938385	-0.5788749617948774	-0.33015549829276747	1.9777468123683744	-0.5238296103985389	-0.2917889684514305	2.0459835310045755	-0.516553660214445	-0.3446691248624007	1.9762935666897954	-0.44753687763752503	-0.3480431098430383	1.8937876001603884	-0.40640232123592807	-0.3011293013817427	1.8297509340935427	-0.39942658245696605	-0.314630697001997	1.9782916648090307	-0.6026915065097488	-0.30624218235926853	1.9000602065418137	-0.6198227528652905	-0.28365869302984836	1.8379283592659414	-0.6108615598001347
80	2.6666666666666665	-0.31960829011152264	1.816258527192642	-0.48631705715928136	-0.33562826089496467	1.8116048989774314	-0.428360495724497	-0.33608021747475325	1.6851959739597777	-0.42719582601760037	-0.3325684365116819	1.556096306525315	-0.4182336374895567	-0.2943293724768866	1.5313879733226012	-0.39604252676481927	-0.30750261412403546	1.5318955710678535	-0.3763422469471706	-0.33993578921969697	1.543807666717132	-0.4318931500479951	-0.308581891337697	1.8199259096937475	-0.537660093376119	-0.31131254636111233	1.6956542210833587	-0.5310506872182198	-0.3414443312303327	1.5775473593293865	-0.5831729906877106	-0.45020322616867614	1.5288441512648838	-0.9856717432875501	-0.3028174340706399	1.5512598011683938	-0.5899403905133028	-0.35835001243436987	1.5690580424938385	-0.5788749617948774	-0.3289134748243263	1.977878963464192	-0.5121290694073207	-0.28988969193440894	2.0445948614526057	-0.5103193071031682	-0.3433026476784188	1.9736636084399544	-0.43531149017676046	-0.34533719062648904	1.8902142522723562	-0.39071472017793596	-0.29339187986647836	1.8374074637370965	-0.385799841773762	-0.31272520502357526	1.9792085546051192	-0.588648494577846	-0.30660277033228517	1.9034324269313516	-0.6147103894270012	-0.28173158341717525	1.8464181823908588	-0.5912809195166957
81	2.7	-0.3218749407900817	1.8192995550235047	-0.48445455007460814	-0.3367668142328024	1.8166760425257102	-0.42364243295742876	-0.339186385038825	1.6854406602169865	-0.4192090087152212	-0.3335177418018393	1.5593578880369958	-0.4173670485844133	-0.2932355930947466	1.531539045233384	-0.39273532838846353	-0.30785934724297465	1.5312643187709722	-0.37578899578225794	-0.3399122156794069	1.543744091657706	-0.43186849876303635	-0.3108712328585374	1.8228370940569931	-0.5359680520600865	-0.3101293226198588	1.694317901175784	-0.5141754352859684	-0.33464642936808564	1.570984949026885	-0.5582005458477184	-0.2970164042692858	1.5403739761052566	-0.5637070112022785	-0.3028174340706399	1.5512598011683938	-0.5899403905133028	-0.3485817849051422	1.5579394558573005	-0.556159622243666	-0.32882533112558004	1.9765516991520717	-0.5036609832448967	-0.29277258628641445	2.0443361968436013	-0.502930561537316	-0.3418837899586273	1.9734523657144463	-0.42368996391497216	-0.34515167624254456	1.8928629719726133	-0.38265339029060197	-0.2968104675883217	1.8490449478387365	-0.36918581841350223	-0.31174217059181525	1.9791336544791829	-0.5852722017963834	-0.31205522319320605	1.904560383568957	-0.605735468954023	-0.27980447380450213	1.854908005515776	-0.5717002792332568
82	2.7333333333333334	-0.32043273718622733	1.8188791710267593	-0.48117403455220437	-0.3354571515516597	1.8153470472587108	-0.41996693948083924	-0.33633061932334163	1.687477023608246	-0.4180208850403893	-0.3333972951454267	1.5585213308055725	-0.4176922346283117	-0.2933876591315522	1.5323242265644086	-0.39282682484842474	-0.3058409007227594	1.5330935036031286	-0.3784937002588303	-0.33957287589729845	1.5437068646225316	-0.43012267931070747	-0.3094539634861029	1.8224290008348367	-0.5327397206360139	-0.31157453843007193	1.6961527122454023	-0.5083846664877429	-0.32298889148359666	1.5682074747954504	-0.5258294942358946	-0.282081236616535	1.5393563196604487	-0.5251257449409172	-0.2876819284374089	1.5480236924931297	-0.5523158741650339	-0.3311010763644969	1.547364415045119	-0.5241806996285682	-0.32674606698464986	1.9761554587613166	-0.497444433779091	-0.29363668985105473	2.0467289674842175	-0.49802321069054833	-0.3398193426114792	1.973526647806204	-0.4177639643297469	-0.3456417475334209	1.8980292012015891	-0.38387173894022597	-0.27698787054764823	1.8658062401537499	-0.39875924001588203	-0.30979797271674653	1.9788285296275079	-0.5791098912201008	-0.3075536090591112	1.9023737078897616	-0.6097979715608435	-0.27787736419182907	1.8633978286406934	-0.5521196389498179
83	2.7666666666666666	-0.3183645725093091	1.8159048603862566	-0.474362021713838	-0.3330823656213087	1.8135164658851215	-0.41319152316637164	-0.33400603267854245	1.6842984052398562	-0.4200575119144037	-0.3333913243318235	1.5585544553701416	-0.4176181502580897	-0.2963105310134205	1.5315634041239476	-0.39397962223009414	-0.30571353623902975	1.532510117039178	-0.3784325043220658	-0.3392335361151901	1.543669637587357	-0.42837685985837853	-0.3084349627163701	1.8193647442991912	-0.5291070972049111	-0.3110309128761184	1.687962587335978	-0.5082312593257122	-0.32298889148359666	1.5682074747954504	-0.5258294942358946	-0.282081236616535	1.5393563196604487	-0.5251257449409172	-0.2876819284374089	1.5480236924931297	-0.5523158741650339	-0.3311010763644969	1.547364415045119	-0.5241806996285682	-0.3256769132895696	1.9760133870292604	-0.49420350276254066	-0.29156606707144034	2.045212317307375	-0.4913353985704805	-0.3404027878360303	1.9718761114156096	-0.41197538307744225	-0.3473216020263685	1.9008313317248386	-0.3739520606559569	-0.2774318283980852	1.879445592322938	-0.4179924652682284	-0.3088285274641373	1.9800707156024813	-0.5763315860231767	-0.3050338695129057	1.8994386263095009	-0.6092993363810983	-0.27595025457915595	1.8718876517656107	-0.5325389986663789
84	2.8	-0.31809388540503003	1.819617279454695	-0.4748122959355884	-0.3319126723784555	1.816030371084464	-0.4103500228825744	-0.33476002955764517	1.6870837634786997	-0.4150203786588418	-0.3334955733584162	1.5593004566533195	-0.41736211114247396	-0.29418719486217787	1.5306737649642965	-0.3961393496562034	-0.3055767783247232	1.5320609504829565	-0.3785163638708612	-0.33937982949784656	1.5470925401257627	-0.4286108522163623	-0.30834597457544843	1.822063090524368	-0.5293096244210738	-0.3084181717790469	1.6901647160577675	-0.5023161710851629	-0.32298889148359666	1.5682074747954504	-0.5258294942358946	-0.282081236616535	1.5393563196604487	-0.5251257449409172	-0.2876819284374089	1.5480236924931297	-0.5523158741650339	-0.3311010763644969	1.547364415045119	-0.5241806996285682	-0.32456947206135706	1.9771351227676301	-0.49098294008293375	-0.290560385882631	2.0451391116732176	-0.4881957126315011	-0.3393422772024727	1.9743437386753233	-0.40916419303941276	-0.3529331010935899	1.9028950218024308	-0.3680587500806096	-0.3002341736600976	1.887377274701041	-0.3991678615330028	-0.3078129787558666	1.9787687153491211	-0.5727269574814089	-0.30383752761155386	1.9044736736310015	-0.6148039357536313	-0.2770462076743425	1.890195907645544	-0.528936795005072
